<?xml version="1.0" encoding="utf-8"?>
<!-- Generator: Adobe Illustrator 19.0.0, SVG Export Plug-In . SVG Version: 6.00 Build 0)  -->
<svg version="1.1" id="Layer_1" xmlns="http://www.w3.org/2000/svg" xmlns:xlink="http://www.w3.org/1999/xlink" x="0px" y="0px"
	 viewBox="-241 243 16 16" style="enable-background:new -241 243 16 16;" xml:space="preserve">
<style type="text/css">
	.st0{fill:#FF2D20;}
</style>
<path class="st0" d="M-225.1,246.6C-225.1,246.6-225.1,246.7-225.1,246.6l0,3.5c0,0.1,0,0.2-0.1,0.2l-2.9,1.7v3.3
	c0,0.1,0,0.2-0.1,0.2l-6,3.5c0,0,0,0,0,0c0,0,0,0,0,0c0,0-0.1,0-0.1,0c0,0,0,0,0,0c0,0,0,0,0,0l-6-3.5c-0.1,0-0.1-0.1-0.1-0.2V245
	c0,0,0,0,0-0.1c0,0,0,0,0,0c0,0,0,0,0,0c0,0,0,0,0,0c0,0,0,0,0,0c0,0,0,0,0,0c0,0,0,0,0,0h0l3-1.7c0.1,0,0.2,0,0.3,0l3,1.7h0
	c0,0,0,0,0,0c0,0,0,0,0,0c0,0,0,0,0,0c0,0,0,0,0,0c0,0,0,0,0,0c0,0,0,0,0,0c0,0,0,0,0,0.1v6.4l2.5-1.4v-3.3c0,0,0,0,0-0.1
	c0,0,0,0,0,0c0,0,0,0,0,0c0,0,0,0,0,0c0,0,0,0,0,0c0,0,0,0,0,0c0,0,0,0,0,0h0l3-1.7c0.1,0,0.2,0,0.3,0l3,1.7c0,0,0,0,0,0
	c0,0,0,0,0,0C-225.2,246.5-225.2,246.5-225.1,246.6C-225.1,246.5-225.1,246.6-225.1,246.6C-225.1,246.6-225.1,246.6-225.1,246.6
	C-225.1,246.6-225.1,246.6-225.1,246.6z M-237.4,243.5l-2.5,1.4l2.5,1.4l2.5-1.4L-237.4,243.5L-237.4,243.5z M-236.1,252.5l1.5-0.8
	v-6.3l-1.1,0.6l-1.5,0.8v6.3C-237.1,253.1-236.1,252.5-236.1,252.5z M-228.4,245.2l-2.5,1.4l2.5,1.4l2.5-1.4
	C-225.9,246.7-228.4,245.2-228.4,245.2z M-228.6,248.6l-1.5-0.8l-1.1-0.6v2.9l1.5,0.8l1.1,0.6C-228.6,251.4-228.6,248.6-228.6,248.6
	z M-234.4,255l3.7-2.1l1.8-1l-2.5-1.4l-2.9,1.7l-2.6,1.5C-236.9,253.6-234.4,255-234.4,255z"/>
</svg>
